<?xml version="1.0" encoding="utf-8"?>
<!-- Generator: Adobe Illustrator 25.2.3, SVG Export Plug-In . SVG Version: 6.00 Build 0)  -->
<svg version="1.1" id="圖層_1" xmlns="http://www.w3.org/2000/svg" xmlns:xlink="http://www.w3.org/1999/xlink" x="0px" y="0px"
	 viewBox="0 0 24 24" style="enable-background:new 0 0 24 24;" xml:space="preserve">
<style type="text/css">
	.st0{fill:#FFFFFF;}
</style>
<path class="st0" d="M17,2c2.8,0,5,2.2,5,5v10c0,2.8-2.2,5-5,5H7c-2.8,0-5-2.2-5-5V7c0-2.8,2.2-5,5-5H17 M17,0H7C3.1,0,0,3.1,0,7v10
	c0,3.9,3.1,7,7,7h10c3.9,0,7-3.1,7-7V7C24,3.1,20.9,0,17,0z"/>
<path class="st0" d="M18.4,7.2c-0.9,0-1.6-0.7-1.6-1.6c0-0.9,0.7-1.6,1.6-1.6c0.9,0,1.6,0.7,1.6,1.6c0,0.4-0.2,0.8-0.5,1.1
	C19.3,7,18.9,7.2,18.4,7.2z"/>
<path class="st0" d="M12,7.6c2.4,0,4.4,1.9,4.4,4.4c0,2.4-1.9,4.4-4.4,4.4c-2.4,0-4.4-1.9-4.4-4.4S9.6,7.6,12,7.6L12,7.6 M12,5.5
	c-3.6,0-6.5,2.9-6.5,6.5s2.9,6.5,6.5,6.5c3.6,0,6.5-2.9,6.5-6.5C18.5,8.4,15.6,5.5,12,5.5L12,5.5z"/>
</svg>
