<?xml version="1.0" encoding="utf-8"?>
<!-- Generator: Adobe Illustrator 25.2.3, SVG Export Plug-In . SVG Version: 6.00 Build 0)  -->
<svg version="1.1" id="圖層_1" xmlns="http://www.w3.org/2000/svg" xmlns:xlink="http://www.w3.org/1999/xlink" x="0px" y="0px"
	 viewBox="0 0 48 48" style="enable-background:new 0 0 48 48;" xml:space="preserve">
<style type="text/css">
	.st0{fill:#907A7B;}
</style>
<path class="st0" d="M28.3,17.9L28.3,17.9c-0.5,0-0.9,0.4-0.9,0.9c0,0,0,0,0,0v4L24,18.4c-0.2-0.3-0.5-0.4-0.8-0.5l0,0
	c-0.5,0-0.9,0.4-0.9,0.9c0,0,0,0,0,0v6.8c0,0.5,0.4,0.9,0.9,0.9c0,0,0,0,0,0l0,0c0.5,0,0.9-0.4,0.9-0.9c0,0,0,0,0,0v-4l3.3,4.6l0,0
	c0.1,0.1,0.2,0.2,0.4,0.3c0.1,0,0.2,0,0.3,0l0,0c0.2,0.1,0.4,0.1,0.6,0l0.2-0.2l0,0c0.2-0.2,0.3-0.4,0.3-0.6v-6.8
	c0-0.5-0.4-0.9-0.9-0.9C28.4,17.9,28.3,17.9,28.3,17.9L28.3,17.9z M17.3,24.6h-2.5v-5.8c0-0.5-0.4-0.9-0.9-0.9l0,0l0,0
	c-0.5,0-0.9,0.4-0.9,0.9l0,0v6.8c0,0.5,0.4,0.9,0.9,0.9l0,0h3.5c0.5,0,0.9-0.4,0.9-0.9l0,0C18.2,25.1,17.8,24.7,17.3,24.6
	C17.3,24.6,17.3,24.6,17.3,24.6z M19.9,17.9L19.9,17.9c-0.5,0-0.9,0.4-0.9,0.9v6.8c0,0.5,0.4,0.9,0.9,0.9l0,0c0.5,0,0.9-0.4,0.9-0.9
	c0,0,0,0,0,0v-6.8C20.9,18.3,20.4,17.9,19.9,17.9C19.9,17.9,19.9,17.9,19.9,17.9L19.9,17.9z M38.2,0H9.8C4.4,0,0,4.4,0,9.8v28.4
	C0,43.6,4.4,48,9.8,48h28.4c5.4,0,9.8-4.4,9.8-9.8V9.8C48,4.4,43.6,0,38.2,0z M38.9,29.5c-0.1,0.1-0.2,0.3-0.3,0.4l0,0
	c-0.6,0.7-1.2,1.3-1.9,1.9c-4.8,4.5-12.9,9.9-13.9,9s1.5-4.2-1.3-4.8c-0.2,0-0.4,0-0.6,0l0,0c-8.3-1.2-14.4-6.9-14.4-13.9
	C6.5,14.4,14.4,8,24.1,8s17.6,6.3,17.6,14.1C41.6,24.8,40.7,27.4,38.9,29.5L38.9,29.5z M34.8,17.9h-3.6c-0.5,0-0.9,0.4-0.9,0.9v6.8
	c0,0.5,0.4,0.9,0.9,0.9h3.6c0.5,0,0.9-0.4,0.9-0.9l0,0c0-0.5-0.4-0.9-0.9-0.9h-2.5v-1.4h2.5c0.5,0,0.9-0.4,0.9-0.9l0,0
	c0-0.5-0.4-0.9-0.9-0.9h-2.5V20h2.5c0.5,0,0.9-0.4,0.9-0.9l0,0c0.1-0.5-0.2-1-0.6-1.1C35,17.9,34.9,17.9,34.8,17.9L34.8,17.9z"/>
</svg>
